<mxfile host="app.diagrams.net" agent="Mozilla/5.0 (Windows NT 10.0; Win64; x64) AppleWebKit/537.36 (KHTML, like Gecko) Chrome/134.0.0.0 Safari/537.36" version="26.1.2">
  <diagram name="第 1 页" id="JQvxnl0B23daqUgOH2Ub">
    <mxGraphModel dx="1646" dy="422" grid="1" gridSize="10" guides="1" tooltips="1" connect="1" arrows="1" fold="1" page="1" pageScale="1" pageWidth="827" pageHeight="1169" math="0" shadow="0">
      <root>
        <mxCell id="0" />
        <mxCell id="1" parent="0" />
        <mxCell id="5jGa2TrxGDTYTmwRoSQh-1" value="&lt;font style=&quot;font-size: 14px;&quot;&gt;（SmileIntensity&lt;/font&gt;&lt;div&gt;&lt;span style=&quot;font-size: 14px; background-color: transparent; color: light-dark(rgb(0, 0, 0), rgb(255, 255, 255));&quot;&gt;→&amp;nbsp;&lt;/span&gt;&lt;span style=&quot;background-color: transparent; color: light-dark(rgb(0, 0, 0), rgb(255, 255, 255)); font-size: 14px;&quot;&gt;CortisolLevel）&lt;/span&gt;&lt;div&gt;&lt;div&gt;&lt;font style=&quot;font-size: 14px;&quot;&gt;Cross-Attention&lt;/font&gt;&lt;/div&gt;&lt;/div&gt;&lt;/div&gt;" style="rounded=1;whiteSpace=wrap;html=1;fillColor=#d5e8d4;strokeColor=#82b366;fontFamily=Times New Roman;" vertex="1" parent="1">
          <mxGeometry x="200" y="275" width="110" height="60" as="geometry" />
        </mxCell>
        <mxCell id="5jGa2TrxGDTYTmwRoSQh-3" value="&lt;font style=&quot;font-size: 14px;&quot;&gt;（Temperature&lt;/font&gt;&lt;span style=&quot;font-size: 14px; background-color: transparent; color: light-dark(rgb(0, 0, 0), rgb(255, 255, 255));&quot;&gt;→&amp;nbsp;&lt;/span&gt;&lt;div&gt;&lt;span style=&quot;background-color: transparent;&quot;&gt;&lt;span style=&quot;font-size: 14px;&quot;&gt;LightingLevel)&lt;/span&gt;&lt;font color=&quot;rgba(0, 0, 0, 0)&quot;&gt;&lt;span style=&quot;font-size: 14px;&quot;&gt;）&lt;/span&gt;&lt;/font&gt;&lt;/span&gt;&lt;div&gt;&lt;font style=&quot;font-size: 14px;&quot;&gt;Cross-Attention&lt;/font&gt;&lt;/div&gt;&lt;/div&gt;" style="rounded=1;whiteSpace=wrap;html=1;fillColor=#dae8fc;strokeColor=#6c8ebf;fontFamily=Times New Roman;" vertex="1" parent="1">
          <mxGeometry x="200" y="375" width="116" height="70" as="geometry" />
        </mxCell>
        <mxCell id="5jGa2TrxGDTYTmwRoSQh-4" value="EEG" style="text;html=1;align=left;verticalAlign=middle;whiteSpace=wrap;rounded=0;fontFamily=Times New Roman;fontSize=14;" vertex="1" parent="1">
          <mxGeometry x="60" y="100" width="60" height="30" as="geometry" />
        </mxCell>
        <mxCell id="5jGa2TrxGDTYTmwRoSQh-5" value="HeartRate" style="text;html=1;align=center;verticalAlign=middle;whiteSpace=wrap;rounded=0;fontFamily=Times New Roman;fontSize=14;" vertex="1" parent="1">
          <mxGeometry x="60" y="155" width="60" height="30" as="geometry" />
        </mxCell>
        <mxCell id="5jGa2TrxGDTYTmwRoSQh-6" value="SkinConductance" style="text;html=1;align=center;verticalAlign=middle;whiteSpace=wrap;rounded=0;fontFamily=Times New Roman;fontSize=14;" vertex="1" parent="1">
          <mxGeometry x="60" y="210" width="100" height="30" as="geometry" />
        </mxCell>
        <mxCell id="5jGa2TrxGDTYTmwRoSQh-7" value="Temperature" style="text;html=1;align=center;verticalAlign=middle;whiteSpace=wrap;rounded=0;fontFamily=Times New Roman;fontSize=14;" vertex="1" parent="1">
          <mxGeometry x="60" y="375" width="70" height="30" as="geometry" />
        </mxCell>
        <mxCell id="5jGa2TrxGDTYTmwRoSQh-8" value="SmileIntensity" style="text;html=1;align=center;verticalAlign=middle;whiteSpace=wrap;rounded=0;fontFamily=Times New Roman;fontSize=14;" vertex="1" parent="1">
          <mxGeometry x="60" y="265" width="80" height="30" as="geometry" />
        </mxCell>
        <mxCell id="5jGa2TrxGDTYTmwRoSQh-9" value="CortisolLevel" style="text;html=1;align=center;verticalAlign=middle;whiteSpace=wrap;rounded=0;fontFamily=Times New Roman;fontSize=14;" vertex="1" parent="1">
          <mxGeometry x="60" y="320" width="80" height="30" as="geometry" />
        </mxCell>
        <mxCell id="5jGa2TrxGDTYTmwRoSQh-10" value="LightingLevel" style="text;html=1;align=center;verticalAlign=middle;whiteSpace=wrap;rounded=0;fontFamily=Times New Roman;fontSize=14;" vertex="1" parent="1">
          <mxGeometry x="60" y="430" width="80" height="30" as="geometry" />
        </mxCell>
        <mxCell id="5jGa2TrxGDTYTmwRoSQh-11" value="" style="shape=curlyBracket;whiteSpace=wrap;html=1;rounded=1;labelPosition=left;verticalLabelPosition=middle;align=right;verticalAlign=middle;" vertex="1" parent="1">
          <mxGeometry x="30" y="110" width="20" height="120" as="geometry" />
        </mxCell>
        <mxCell id="5jGa2TrxGDTYTmwRoSQh-12" value="" style="shape=curlyBracket;whiteSpace=wrap;html=1;rounded=1;labelPosition=left;verticalLabelPosition=middle;align=right;verticalAlign=middle;" vertex="1" parent="1">
          <mxGeometry x="30" y="275" width="20" height="165" as="geometry" />
        </mxCell>
        <mxCell id="5jGa2TrxGDTYTmwRoSQh-13" value="Primary modality" style="text;html=1;align=left;verticalAlign=middle;whiteSpace=wrap;rounded=0;fontFamily=Times New Roman;fontSize=14;rotation=270;" vertex="1" parent="1">
          <mxGeometry x="-50" y="155" width="110" height="30" as="geometry" />
        </mxCell>
        <mxCell id="5jGa2TrxGDTYTmwRoSQh-14" value="Auxiliary modality" style="text;html=1;align=left;verticalAlign=middle;whiteSpace=wrap;rounded=0;fontFamily=Times New Roman;fontSize=14;flipH=1;flipV=1;rotation=270;" vertex="1" parent="1">
          <mxGeometry x="-50" y="342.5" width="110" height="30" as="geometry" />
        </mxCell>
        <mxCell id="5jGa2TrxGDTYTmwRoSQh-15" value="" style="shape=image;verticalLabelPosition=bottom;labelBackgroundColor=default;verticalAlign=top;aspect=fixed;imageAspect=0;editableCssRules=.*;image=data:image/svg+xml,PHN2ZyB4bWxuczp4bGluaz0iaHR0cDovL3d3dy53My5vcmcvMTk5OS94bGluayIgeG1sbnM9Imh0dHA6Ly93d3cudzMub3JnLzIwMDAvc3ZnIiBoZWlnaHQ9IjE1Mi45NTUzNzcxMDE4OTgyIiB3aWR0aD0iMTM0Ljg0NjIzNDMyMTU5NDI0IiB2ZXJzaW9uPSIxLjEiIHZpZXdCb3g9IjE3Ny43MTUxNzk0NDMzNTkzOCAxMjEuNTM4NDE0MDAxNDY0ODQgNjkwLjQxMjcxOTcyNjU2MjUgNzgzLjEzMTUzMDc2MTcxODgiIGNsYXNzPSJpY29uIj48cGF0aCBmaWxsPSIjMkUzNTRGIiBkPSJNNDkxLjI2NCAxNzIuODE3MDY3YTI4Ni4zNzg2NjcgMjg2LjM3ODY2NyAwIDAgMSAxMDMuOTM2IDE5LjE4MjkzMyAyNjQuMDU1NDY3IDI2NC4wNTU0NjcgMCAwIDEgODIuNzA1MDY3IDUwLjY1Mzg2N2wxLjMzMTIgMS4zNjUzMzMgMi43MzA2NjYgMi4wNDhhMTkwLjgwNTMzMyAxOTAuODA1MzMzIDAgMCAxIDYzLjI4MzIgODQuMjA2OTMzIDE5Ny45NzMzMzMgMTk3Ljk3MzMzMyAwIDAgMSAxNS4wMTg2NjcgNjMuNTkwNHYxNC4zNzAxMzRhMTQ5LjQzNTczMyAxNDkuNDM1NzMzIDAgMCAwIDE2Ljc5MzYgNzguODgyMTMzIDM3Mi4yNTgxMzMgMzcyLjI1ODEzMyAwIDAgMCAxOC4xMjQ4IDM2Ljg5ODEzMyA1Ni42NjEzMzMgNTYuNjYxMzMzIDAgMCAwLTI2LjM1MDkzMyAzNS44MDU4NjcgMzY3LjYxNiAzNjcuNjE2IDAgMCAwLTQuMzM0OTM0IDE2LjM0OTg2N2MtMi42MjgyNjcgMTAuOTU2OC01LjQyNzIgMjMuODkzMzMzLTguMDU1NDY2IDM2LjE0NzJhOTguMDY1MDY3IDk4LjA2NTA2NyAwIDAgMC0xLjQzMzYgOC4xMjM3MzMgNTIuMDUzMzMzIDUyLjA1MzMzMyAwIDAgMC0xNi43OTM2IDgxLjkyIDk3LjU4NzIgOTcuNTg3MiAwIDAgMC01LjQyNzIgNDIuOTA1NmgtNzQuNTQ3MmMtNTcuMzc4MTMzIDAtMTA2LjA4NjQgMzguNzQxMzMzLTEzNS45MTg5MzQgMTA3LjE0NDUzMy00LjcxMDQgMC40MDk2LTkuNDg5MDY3IDAuNzE2OC0xNC4xOTk0NjYgMC45NTU3MzRoLTQwLjIwOTA2N2EzNzUuNDY2NjY3IDM3NS40NjY2NjcgMCAwIDEtMTY0LjQ4ODUzMy00OC4wOTM4NjcgMTE5LjA5MTIgMTE5LjA5MTIgMCAwIDAgMjIuMTE4NC00NC4zNzMzMzMgMTk4Ljc1ODQgMTk4Ljc1ODQgMCAwIDAtMTYuNjIyOTM0LTE0MS4xNzU0NjcgMzguODc3ODY3IDM4Ljg3Nzg2NyAwIDAgMC0yLjM4OTMzMy0zLjkyNTMzM2MtNDkuMzU2OC03Mi45NDI5MzMtNzUuMDkzMzMzLTExNy43Ni03Ni4xNTE0NjctMTg2LjQwMjEzNHYtMi44NjcyYTUxNC43MzA2NjcgNTE0LjczMDY2NyAwIDAgMS0xLjM2NTMzMy0yNy43MTYyNjYgMTc2LjcwODI2NyAxNzYuNzA4MjY3IDAgMCAxIDE5Ljg5OTczMy04MS4zMDU2QTIzNC43MDA4IDIzNC43MDA4IDAgMCAxIDMwNC4xMTA5MzMgMjQzLjAyOTMzM2EyNjQuNDY1MDY3IDI2NC40NjUwNjcgMCAwIDEgODMuNTkyNTM0LTUxLjIgMjkwLjcxMzYgMjkwLjcxMzYgMCAwIDEgMTAzLjU2MDUzMy0xOC43NzMzMzNtMC01MS4yYy0xNzMuMjI2NjY3IDAtMzEzLjU0ODggMTE5LjQ2NjY2Ny0zMTMuNTQ4OCAyNzcuMTI4NTMzIDAgMTAuNTQ3MiAxLjUzNiAzMS40NzA5MzMgMS41MzYgMzEuNDcwOTM0IDEuMTk0NjY3IDY4LjI2NjY2NyAyMy4wNzQxMzMgMTIyLjg4IDg0LjkyMzczMyAyMTQuMTE4NGExNDQuODYxODY3IDE0NC44NjE4NjcgMCAwIDEgMTEuMzY2NCAxMDUuODEzMzMzIDg5LjczNjUzMyA4OS43MzY1MzMgMCAwIDEtMjAuNDggMzMuNjIxMzMzIDM3LjU0NjY2NyAzNy41NDY2NjcgMCAwIDAgOC4yMjYxMzQgNTYuOTAwMjY3IDQyNS44ODE2IDQyNS44ODE2IDAgMCAwIDIwMy41MDI5MzMgNjMuNzYxMDY3aDQyLjgwMzJxMjAuMjc1Mi0wLjk4OTg2NyAzOS45NzAxMzMtMy43NTQ2NjdhMTYuMzg0IDE2LjM4NCAwIDAgMCAxMy4xNzU0NjctMTAuNzg2MTMzYzEwLjQ3ODkzMy0yOS41NTk0NjcgMzkuNTYwNTMzLTkzLjU1OTQ2NyA5NS44MTIyNjctOTMuNTU5NDY3aDgzLjQ5MDEzM2E4OS44Mzg5MzMgODkuODM4OTMzIDAgMCAwIDI3LjMwNjY2Ny01LjE4ODI2NyAyMi45Mzc2IDIyLjkzNzYgMCAwIDAgMi45MzU0NjYtMS4zNjUzMzMgNTAuMDczNiA1MC4wNzM2IDAgMCAwIDExLjkxMjUzNC00OC42NCA0Ni4yMTY1MzMgNDYuMjE2NTMzIDAgMCAxIDEyLjkzNjUzMy0zNy45NTYyNjcgMjAuODU1NDY3IDIwLjg1NTQ2NyAwIDAgMCA2LjgyNjY2Ny0xMy4zNDYxMzN2LTEuNzc0OTMzYTI5LjQyMjkzMyAyOS40MjI5MzMgMCAwIDAtMjcuMDMzNi0xOS43OTczMzQgMC45NTU3MzMgMC45NTU3MzMgMCAwIDEgMC4yMzg5MzMtMS44NDMyIDM3LjU0NjY2NyAzNy41NDY2NjcgMCAwIDAgMjAuNDgtNS42NjYxMzMgMTcuMDY2NjY3IDE3LjA2NjY2NyAwIDAgMCA4LjYzNTczMy0xMy44MjR2LTEuNDMzNmExMi40OTI4IDEyLjQ5MjggMCAwIDAgMC0xLjk0NTYgNTguODggNTguODggMCAwIDEgMC40MDk2LTIwLjc1MzA2NyAzODEuMjAxMDY3IDM4MS4yMDEwNjcgMCAwIDEgMTMuNjUzMzM0LTU0LjM0MDI2NmM2MC4xNDI5MzMtMi4zMjEwNjcgNDguMDI1Ni0yOC43NzQ0IDQ0LjEwMDI2Ni0zNS4yOTM4NjdhMTMuMjc3ODY3IDEzLjI3Nzg2NyAwIDAgMC0xLjY3MjUzMy0yLjI1MjggMjM2LjYxMjI2NyAyMzYuNjEyMjY3IDAgMCAxLTM4LjYwNDgtNjQuNDc3ODY3IDEzNS4wOTk3MzMgMTM1LjA5OTczMyAwIDAgMS0xMi42OTc2LTczLjc2MjEzMyAyNjAuMTMwMTMzIDI2MC4xMzAxMzMgMCAwIDAtOTcuOTYyNjY3LTE4Ny4zMjM3MzMgMzI4LjgwNjQgMzI4LjgwNjQgMCAwIDAtMjIyLjE3Mzg2Ni04NC4wMzYyNjd6IG0wIDBsMTMwLjI4NjkzMyAxNTcuNzk4NCIvPjxwYXRoIGZpbGw9IiMyRTM1NEYiIGQ9Ik01MTkuMzU1NzMzIDIzNC4xODg4YTI0Ljc0NjY2NyAyNC43NDY2NjcgMCAwIDEgMCA0OS40NTkyIDI0LjIwMDUzMyAyNC4yMDA1MzMgMCAwIDEtMTEuMzY2NC0yLjc2NDhsLTYuMjQ2NC0zLjQxMzMzMy0zLjYxODEzMy02LjA0MTZhMjQuNjc4NCAyNC42Nzg0IDAgMCAxIDIxLjIzMDkzMy0zNy41NDY2NjdtLTE2OS4xOTg5MzMgMTE2LjIyNGE0MC45NiA0MC45NiAwIDAgMSAyOC45MTA5MzMgMTEuODQ0MjY3bDYuMjEyMjY3IDYuMTA5ODY2IDMuMjA4NTMzIDguMDIxMzM0YTQwLjU4NDUzMyA0MC41ODQ1MzMgMCAwIDEgMi45MzU0NjcgMTUuMjU3NiA0MS44ODE2IDQxLjg4MTYgMCAwIDEtMC41ODAyNjcgNi44MjY2NjZsLTEuMzk5NDY2IDguNTMzMzM0LTQuNzc4NjY3IDcuMjcwNGE0MS4yMzMwNjcgNDEuMjMzMDY3IDAgMSAxLTM0LjUwODgtNjMuODYzNDY3bTIxNi44NDkwNjcgMTE3LjA3NzMzM2EyNC43NDY2NjcgMjQuNzQ2NjY3IDAgMSAxLTI0Ljc0NjY2NyAyNC43NDY2Njd2LTEuNjcyNTMzbDAuNDc3ODY3LTYuODI2NjY3TDU0Ni42NjI0IDQ3Ny44NjY2NjdhMjQuODE0OTMzIDI0LjgxNDkzMyAwIDAgMSAyMC4yNDEwNjctMTAuNTEzMDY3bS00Ny43ODY2NjctMjYyLjE3ODEzM2E1My41ODkzMzMgNTMuNTg5MzMzIDAgMCAwLTQ1Ljk3NzYgODEuMTM0OTMzbC03NC4xMDM0NjcgNTUuMTkzNmE3MC4wNzU3MzMgNzAuMDc1NzMzIDAgMSAwIDkuNDU0OTM0IDg4LjQ3MzZsMTA0Ljc4OTMzMyA1OC41NzI4djMuNDEzMzMzYTUzLjUyMTA2NyA1My41MjEwNjcgMCAxIDAgOS43OTYyNjctMzAuOTI0OGwtMTAzLjkwMTg2Ny01OC4wMjY2NjZhNzEuNDQxMDY3IDcxLjQ0MTA2NyAwIDAgMCAwLjkyMTYtMTEuNTM3MDY3IDcwLjQ1MTIgNzAuNDUxMiAwIDAgMC00Ljk0OTMzMy0yNS45NDEzMzNsNzkuNDYyNC01OS4xODcyYTUzLjU4OTMzMyA1My41ODkzMzMgMCAxIDAgMjQuNjEwMTMzLTEwMS4yMDUzMzR6IG0wIDAiLz48L3N2Zz4=;" vertex="1" parent="1">
          <mxGeometry x="174.13000000000002" y="100" width="26.47" height="30" as="geometry" />
        </mxCell>
        <mxCell id="5jGa2TrxGDTYTmwRoSQh-16" value="" style="shape=image;verticalLabelPosition=bottom;labelBackgroundColor=default;verticalAlign=top;aspect=fixed;imageAspect=0;editableCssRules=.*;image=data:image/svg+xml,PHN2ZyB4bWxuczp4bGluaz0iaHR0cDovL3d3dy53My5vcmcvMTk5OS94bGluayIgeG1sbnM9Imh0dHA6Ly93d3cudzMub3JnLzIwMDAvc3ZnIiBoZWlnaHQ9IjEyOS4yNzczNDg1MTgzNzE1OCIgd2lkdGg9IjE2My4xNDQ1NDA3ODY3NDMxNiIgdmVyc2lvbj0iMS4xIiB2aWV3Qm94PSIxMzcuNjAwMDA2MTAzNTE1NjIgMTk1LjI5OTk4Nzc5Mjk2ODc1IDgzNS4zMDAwNDg4MjgxMjUgNjYxLjkwMDAyNDQxNDA2MjUiIGNsYXNzPSJpY29uIj48cGF0aCBmaWxsPSIjNzM0NDhGIiBkPSJNNTUyLjEgODU3LjJjLTI1LjIgMC01MC4zLTkuNi02OS41LTI4LjdMMjMzIDU3OS4xYy0xMS4yLTExLjItMjEuMi0yMy41LTI5LjctMzYuNy00LjUtNi45LTIuNS0xNi4yIDQuNC0yMC44IDYuOS00LjUgMTYuMi0yLjUgMjAuOCA0LjQgNy40IDExLjQgMTYuMSAyMi4xIDI1LjggMzEuOGwyNDkuNiAyNDkuNGMyNi42IDI2LjYgNjkuOSAyNi42IDk2LjYgMGwyNDkuNi0yNDkuNGM5LjktOS45IDE4LjgtMjAuOSAyNi4zLTMyLjYgNC41LTcgMTMuOC05IDIwLjctNC41IDcgNC41IDkgMTMuOCA0LjUgMjAuNy04LjMgMTIuOS0xOCAyNS0yOC44IDM2LjFsLTEuNCAxLjQtMC4xIDAuMS0wLjIgMC4yLTI0OS42IDI0OS4zYy0xOS4xIDE5LjItNDQuMyAyOC43LTY5LjQgMjguN3pNOTIwLjggNDU4LjFjLTAuNSAwLTEuMSAwLTEuNy0wLjEtOC4yLTAuOS0xNC4yLTguMy0xMy4zLTE2LjUgNi41LTU5LjEtMTMuOS0xMTcuMS01Ni0xNTkuMS03Ni4xLTc2LTE5OS44LTc2LTI3NS44IDAtMTIuMiAxMi4xLTMxLjkgMTIuMS00NC4xIDAtNzYuMS03Ni0xOTkuOC03Ni0yNzUuOCAwLTQxLjMgNDEuMy02MS44IDk4LjMtNTYuMiAxNTYuNSAwLjggOC4yLTUuMyAxNS42LTEzLjUgMTYuNC04LjMgMC44LTE1LjYtNS4zLTE2LjQtMTMuNS02LjQtNjcuMSAxNy4yLTEzMi45IDY0LjktMTgwLjYgNDIuNS00Mi41IDk5LTY1LjkgMTU5LjEtNjUuOXMxMTYuNiAyMy40IDE1OS4xIDY1LjljMC41IDAuNSAxLjIgMC41IDEuNiAwIDQyLjUtNDIuNSA5OS02NS45IDE1OS4xLTY1LjlzMTE2LjYgMjMuNCAxNTkuMSA2NS45YzQ4LjUgNDguNSA3Mi4xIDExNS40IDY0LjYgMTgzLjYtMC42IDcuNi03LjEgMTMuMy0xNC43IDEzLjN6Ii8+PHBhdGggZmlsbD0iI0UzMzE4QyIgZD0iTTUyNS4yIDYyMy4xYy0xLjEgMC0yLjItMC4xLTMuNC0wLjItMTMtMS40LTIzLjUtMTAuNS0yNi44LTIzLjFsLTQ3LjktMTg3LjNjLTAuMS0wLjMtMC4yLTAuNi0wLjgtMC43LTAuNi0wLjEtMC44IDAuMi0xIDAuNGwtNTAuNCA3MC40Yy0wLjQgMC42LTAuOSAxLjMtMS40IDItNS4xIDcuMy0xMy42IDE5LjctMjcuMSAxOS43SDE1Mi42Yy04LjMgMC0xNS02LjctMTUtMTVzNi43LTE1IDE1LTE1aDIxMS4yYzEuNi0xLjcgMy45LTUgNS4xLTYuNyAwLjYtMC45IDEuMi0xLjcgMS43LTIuNGw1MC40LTcwLjRjNy4xLTkuOSAxOS0xNC43IDMwLjktMTIuNCAxMiAyLjIgMjEuMyAxMSAyNC4zIDIyLjhsNDcuOSAxODcuM2MwLjEgMC40IDAuMiAwLjcgMC45IDAuNyAwLjcgMC4xIDAuOC0wLjIgMS0wLjZsNTIuNi0xMDUuOWM2LTEyLjIgMTguNi0xOC44IDMyLjEtMTYuOSAxMy40IDEuOSAyMy43IDExLjcgMjYuMiAyNS4xbDExLjkgNjQuNWMwLjEgMC40IDAuMSAwLjcgMC45IDAuOCAwLjcgMC4xIDAuOC0wLjIgMS0wLjZsMzEuMi02Ni4zYzUuNy0xMi4yIDE4LjItMjAuMSAzMS43LTIwLjFoMjQ0LjNjOC4zIDAgMTUgNi43IDE1IDE1cy02LjcgMTUtMTUgMTVINzEzLjVjLTEuOSAwLTMuNyAxLjEtNC41IDIuOWwtMzEuMiA2Ni4zYy01LjggMTIuNC0xOC40IDE5LjMtMzIgMTcuNS0xMy42LTEuOC0yNC0xMS42LTI2LjUtMjUuMWwtMTEuOS02NC41Yy0wLjEtMC40LTAuMS0wLjctMC44LTAuOC0wLjctMC4xLTAuOCAwLjEtMSAwLjVMNTUzIDYwNS45Yy01LjUgMTAuNy0xNi4xIDE3LjItMjcuOCAxNy4yeiIvPjwvc3ZnPg==;" vertex="1" parent="1">
          <mxGeometry x="174.73000000000002" y="155" width="25.27" height="20" as="geometry" />
        </mxCell>
        <mxCell id="5jGa2TrxGDTYTmwRoSQh-17" value="" style="shape=image;verticalLabelPosition=bottom;labelBackgroundColor=default;verticalAlign=top;aspect=fixed;imageAspect=0;editableCssRules=.*;image=data:image/svg+xml,PHN2ZyB4bWxuczp4bGluaz0iaHR0cDovL3d3dy53My5vcmcvMTk5OS94bGluayIgeG1sbnM9Imh0dHA6Ly93d3cudzMub3JnLzIwMDAvc3ZnIiBoZWlnaHQ9IjEyOC41MTU2MjUiIHdpZHRoPSIxNzUiIHZlcnNpb249IjEuMSIgdmlld0JveD0iNjQgMTgzIDg5NiA2NTgiIGNsYXNzPSJpY29uIj48cGF0aCBmaWxsPSIjMjIyMjIyIiBkPSJNNTcyIDM0OWM0MS40MjEgMCA3NSAzMy41NzkgNzUgNzVzLTMzLjU3OSA3NS03NSA3NS03NS0zMy41NzktNzUtNzUgMzMuNTc5LTc1IDc1LTc1eiBtMCA0MGMtMTkuMzMgMC0zNSAxNS42Ny0zNSAzNXMxNS42NyAzNSAzNSAzNSAzNS0xNS42NyAzNS0zNS0xNS42Ny0zNS0zNS0zNXogbS02MC0yMDZjMTA5LjkxIDAgMjAxLjQxMyA3OC44MDcgMjIxLjA4NyAxODIuOTk4TDk0MCAzNjZjMTEuMDQ2IDAgMjAgOC45NTQgMjAgMjBzLTguOTU0IDIwLTIwIDIwSDY5Ni45ODFsLTAuMTM5LTE2LjM2OS0zLjA2LTE2LjIxMWMtMTYuMjAyLTg1LjgwMi05MC45NjctMTQ5LjE0My0xNzkuMTA3LTE1MC40TDUxMiAyMjNjLTg4LjQwNSAwLTE2My44OTMgNjIuNDgzLTE4MS4yNzIgMTQ3LjgyN2wtMC41MSAyLjU5My0zLjA2NiAxNi4yMzdMMzI3LjAxIDQwNmgtNDAuMDAxdi0wLjAwMkw4NCA0MDZjLTExLjA0NiAwLTIwLTguOTU0LTIwLTIwczguOTU0LTIwIDIwLTIwbDIwNi45MTMtMC4wMDJDMzEwLjU4NyAyNjEuODA4IDQwMi4wOSAxODMgNTEyIDE4M3pNODQgODAxaDg1NmMxMS4wNDYgMCAyMCA4Ljk1NCAyMCAyMHMtOC45NTQgMjAtMjAgMjBIODRjLTExLjA0NiAwLTIwLTguOTU0LTIwLTIwczguOTU0LTIwIDIwLTIweiBtMzUzLjY5OC0xODYuNDgzYzIyLjMzNS0xNi40OTQgNTAuMy0yMi4yNDEgODAuMjc3LTE5LjM2NiAxMS44NDQgMS4xMzYgMjMuNzkgMy42NzUgMzQuNjUgNy4xMTJsMS42MiAwLjUyMmM5LjY3NCAzLjE3MiAxOC40MiA3LjA1MSAyNS4zNyAxMS4yNjhsMC41NzYgMC4zNTJjMTAuNTc5IDYuNTQgMjYuMDYgMTEuOTIgNDIuNjczIDEzLjU1IDIxLjM4IDIuMDk4IDQzLjA5LTEuOTYgNjQuMzY3LTEzLjU4M2wwLjQyNS0wLjIzNSAwLjI4LTAuMTcyYzI0Ljc3Ny0xNS4xNzggNTIuNDQ5LTIwLjkzIDgyLjI1Ni0xNy4yMDNsMC45MTMgMC4xMTdjMTAuOTUxIDEuNDM4IDE4LjY2MyAxMS40ODIgMTcuMjI1IDIyLjQzNC0xLjQyNCAxMC44MzctMTEuMjc1IDE4LjUwMi0yMi4wOTMgMTcuMjY3bC0wLjM0Mi0wLjA0MmMtMjEuMTI1LTIuNzc1LTM5Ljg0NSAxLjAyNi01Ni45MzcgMTEuNDU4bC0xLjA3NiAwLjY2Ni0wLjQzMSAwLjIzOWMtMjguODQ1IDE2LjAyMS01OC45NzMgMjEuNzYtODguNDkzIDE4Ljg2My0yMi40NzctMi4yMDUtNDMuNS05LjQyOS01OS4xMDUtMTguOTFsLTAuNjk1LTAuNDI1Yy0yLjUyNi0xLjU2Mi01LjYxLTMuMTEtOS4xLTQuNTc3bC0xLjE3OC0wLjQ4NmMtNC43Ny0xLjkzLTEwLjIyOC0zLjY5OS0xNi4wMS01LjE0MWwtMS40NTMtMC4zNTRjLTUuNTkxLTEuMzMtMTEuNDUyLTIuMzQ1LTE3LjI2MS0yLjkwMy0yMS4wNTMtMi4wMi0zOS40MzcgMS44MDQtNTMuMDA1IDExLjk1NmwtMC40ODggMC4zNy0wLjg2OCAwLjY2NC0wLjkzNSAwLjU2N2MtMjguMjk3IDE3LjEzNS01Ni44NzUgMjQuMjM3LTg1LjE1MiAyMi43Mi0yMi4wNTItMS4xODQtNDIuMzItNy4zNjYtNjIuMTA1LTE3LjI2LTQuMjgzLTIuMTQyLTguMzU1LTQuMzYtMTIuNjQ5LTYuODQ4bC0yLjAyMS0xLjE4Mi04LjU4NS01LjEyNGMtMi43NC0xLjYwMi02LjI3OC0yLjg4MS0xMC42MDItMy43OTRsLTAuOTA2LTAuMTg0YTYzLjQ0NCA2My40NDQgMCAwIDAtMS44NzktMC4zMzZsLTAuOTcyLTAuMTUyYTcyLjEzOCA3Mi4xMzggMCAwIDAtMC40OTUtMC4wNzJsLTEuMDA3LTAuMTM2Yy0wLjMzOS0wLjA0NC0wLjY4Mi0wLjA4NS0xLjAyOC0wLjEyNWwtMS4wNTEtMC4xMTRjLTAuMzU1LTAuMDM2LTAuNzEyLTAuMDctMS4wNzQtMC4xMDNsLTEuMDk1LTAuMDkyLTEuMTE4LTAuMDhjLTAuMzc2LTAuMDI2LTAuNzU2LTAuMDUtMS4xNC0wLjA3bC0xLjE2Mi0wLjA1OWMtMC45NzctMC4wNDMtMS45NzgtMC4wNzUtMy4wMDEtMC4wOTVsLTEuMjQtMC4wMTctMS4yNi0wLjAwNi0xLjI4NCAwLjAwNi0wLjY1IDAuMDA3LTEuMzE2IDAuMDI0LTAuNjY3IDAuMDE2LTEuMzQ5IDAuMDQyLTEuMzcxIDAuMDU0LTEuMzkzIDAuMDY2LTEuNDE1IDAuMDc4LTEuNDM3IDAuMDktMS40NTggMC4xMDQtMS40OCAwLjExNi0xLjUwMyAwLjEyOC0xLjUyNCAwLjE0MS0wLjc3IDAuMDc2LTEuNTU2IDAuMTYtMC43ODYgMC4wODVjLTEwLjk4IDEuMjA1LTIwLjg1OC02LjcxOS0yMi4wNjMtMTcuNjk5LTEuMjA1LTEwLjk4IDYuNzE5LTIwLjg1NyAxNy42OTgtMjIuMDYybDEuODkyLTAuMjAyIDAuOTQtMC4wOTQgMS44NjUtMC4xOCAxLjg0OS0wLjE2M2MwLjYxMy0wLjA1MiAxLjIyMy0wLjEwMSAxLjgzLTAuMTQ4bDEuODE0LTAuMTM0IDAuOS0wLjA2IDEuNzg3LTAuMTExIDEuNzctMC4wOTVjMjQuMzY0LTEuMjEgNDMuNzQ4IDEuOTk2IDU4LjM3IDEwLjM1NGwwLjgxIDAuNDcyIDguNzE5IDUuMjAzIDAuMzMyIDAuMTk2YzQuMDY5IDIuMzgyIDcuNzc3IDQuNDIgMTEuNjIyIDYuMzQzIDE1LjIzMyA3LjYxOCAzMC4zNzEgMTIuMjM1IDQ2LjM1OCAxMy4wOTMgMTkuNzc4IDEuMDYxIDM5Ljg3LTMuNzg0IDYwLjcwNC0xNi4wNDdsMC43NDMtMC40NDIgMC4zOTktMC4yOTZ6Ii8+PC9zdmc+;" vertex="1" parent="1">
          <mxGeometry x="174.73" y="210" width="27.52" height="20.29" as="geometry" />
        </mxCell>
      </root>
    </mxGraphModel>
  </diagram>
</mxfile>
